<svg xmlns="http://www.w3.org/2000/svg" viewBox="0 0 694 359.37"><defs><style>.cls-1{fill:#63ac8c}</style></defs><g id="Слой_2" data-name="Слой 2"><g id="Layer_1" data-name="Layer 1"><path class="cls-1" d="M271.32 130.84c-.35-1.06-1.76-1.42-1.41-2.48a5.34 5.34 0 011.41-2.82c3.53-3.18-1.76-6.35 27.89-18 5-2.12 1.06 0 14.12-2.48a54.43 54.43 0 008.12-1.41c2.12-.35 4.24-1.41 6.36-.35 1.06.7 9.18-2.47 15.89-3.18 3.17 0 7.76-4.59 26.47-7.41 1.42-.36 2.83-.36 4.59-1.41-4.23 0-7.76 1-12 1.41 8.47-5.65 14.47-3.18 23.3-6.71 2.47-.71 4.94-.35 7.41-.71 10.95-1.41 21.89-.35 32.48 1.42 10.95 2.11 18.71 2.82 25.42 8.82 2.12 1.41 4.24.35 6.36.71-8.12-11.3-19.77-5.65-23.3-10.95 6 .36 25.77 1.42 25.77 10.59 0 4.24 6.35 0 9.18 14.13 0 .7-3.53 5.65-4.59 6a5.05 5.05 0 01-2.12.7 2.22 2.22 0 01-2.12 0c1.06-3.17 2.83-6.35-1.76-8.12.7 3.18-.71 5.3-1.77 7.77-.71 1.06-1.06 1.77-2.47 1.77s-1.06 2.47-2.82 3.17c-1.42-1.06-1.77-2.82-2.83-4.23-1.41-2.47 3.88-4.59-1.41-6.71a27.06 27.06 0 00-10.59-2.12c-8.12 0-19.77 2.83-49.43 6-2.47.36-4.59 2.12-7.41 1.77-1.77-.35 0 1.76-13.06 35.3-.36 1.06-1.06 1.77-.36 3.18 2.12-1.06 1.42-3.53 3.53-5.65-6.7 25.77-24.36 67.78-40.95 164.52a100.56 100.56 0 00-1.41 22.94c0 1.77-1.06 4.95 2.82 4.95.36 1.76 1.77 2.11 3.53 2.11 1.42.36 0 3.89 3.18 4.95.35.35.71 1.06 0 1.41-1.06.71-.71 2.12-1.06 2.82-1.41 1.42-.35 3.53-2.47 4.24-2.82 1.41-5.65 3.88-9.18 1.77-2.82-1.77-4.59 1.41-9.18-2.48-4.23-4.23-6.35-4.94-7.76-9.53-10.59-35.66 34.24-197.7 48-221 .71-1.06 2.82-1.76 3.18-3.53a5.05 5.05 0 01.7-2.12c-4.23-1.41-48.72 11.3-53.31 12.36-15.88 4.59-22.24 7.06-25.77 7.06a6.47 6.47 0 01-3.88-1.41c-.35 0-1.06-.36-1.41-.36-3.53.36-4.59-2.47-6.36-4.59.37-1.06 1.78-1.06 2.48-2.11zm43.78-28.6c5.3-3.53 11.3-4.94 17.3-6a44.09 44.09 0 01-17.3 6z"/><path class="cls-1" d="M371.58 268.87c13.42-58.6 28.95-55.07 29.66-65.66 0-3.88 9.53-8.12 13.41-5.3a6.31 6.31 0 001.77 1.42c6.35 1.41 10.24 5.29 13.41 9.53 1.41-.71 1.77-1.77 2.47-2.83 2.48-2.47 5.3-2.12 6.71.36.35.35.71 1.41 1.41 1.06 2.48-.71 3.89-.36 4.59 1.41.71.7 1.77-.36 3.18 0a2.88 2.88 0 012.12 1.41c.35 2.47 5.65 2.47 4.94 6-7.06 29.66-21.89 66.72-13.77 95 .71 3.18 3.18 5.65 7.77 5.65 4.24 0 9.88 3.88 7.41 6.35-1.76 1.41-3.17 3.88-6.7 3.18-4.59-.71-4.24 3.53-11.3 1.76-13.06-3.17-17-8.12-19.42-27.18-1.41-9.89-.7-19.77 0-29.66 0-.7.71-1.76-.7-2.47-4.59 1.77-5.3 7.06-11.3 11.65-4.59 3.18-2.83 7.06-11.3 14.48-5.29 4.59-8.82.7-11.3 1.76-4.59 1.77-7.06-1.06-10.59-2.11-2.47-1.06-2.47-3.18-3.17-5.3-2.12-6.74-.71-13.8.7-20.51zm43.78-36.71c2.47-3.89 2.12-8.83-1.41-13.42-7.77 11.65-12.36 24-15.89 36.36 1.41-.35-.35 2.12 17.3-22.94zm20.47 81.9c-1.76-2.47-2.82-4.23-4.23-6 0 2.47 0 4.59 4.23 6zM462 253.69c7.06-20.83 26.83-55.78 44.83-63.54a11.48 11.48 0 013.53-1.06c3.89 0 2.83 4.94 7.42 3.88 2.12-.35 4.23 0 5.65 1.77l2.11 1c3.54 1.42 4.24 2.48 3.89 6.36a20.31 20.31 0 01-.35 4.59c-2.83 14.83 1.05 7.41-2.48 20.83-4.23 15.88-4.23 16.24-8.12 14.47-2.47-1.06-4.59 0-4.59-3.17-.35-7.07 3.18-12.36 3.89-20.83 0-1.06.7-2.83-.36-3.18-3.53-2.12-21.53 21.89-31.06 44.13-3.18 7.41-5.65 19.42-3.53 26.83 1.06 3.18 1.76 3.53 4.94 3.53a23.67 23.67 0 0013.06-3.88c7.06-4.24 9.18-8.12 10.59-8.12.71 0 1.06.7 1.77 1.41.35.7 1.06 1.76 1.76 1.41 3.18-.71 3.18 1.77 3.89 3.88 2.82 8.48 3.88 7.42-.36 11.3-9.53 9.53-17.29 15.89-27.53 15.89a33.51 33.51 0 01-12.36-2.47c-12-4.59-10.24-16.6-18.36-22.6a6.32 6.32 0 01-1.41-3.53c-.39-5.24-2.16-14.07 3.18-28.9zm69.85 6.71c3.53-22.24 11.3-46.25 33.89-55.07.71-.36 1.77 0 2.48 0 2.82.7 5.64.7 8.12-1.42-1.06-1-5 .36-5.65 0a3.75 3.75 0 014.23-3.53c2.83.71 5-1.41 7.06.71 1.06 1.41 1.42 3.88 4.59 2.82 2.12 1.06 4.59 1.77 4.59 4.59.36 5.3 9.53 19.07 6.71 44.84-1.76 16.59-4.59 32.83-19.42 45.54-11.29 9.89-15.18 3.89-22.24 6-4.23 1.42-8.82-.7-11.29-4.23-3.89-6-1.42-10.24-4.95-12-8.12-4.24-9.18-19.78-8.12-28.25zm26.83 19.42c1.06-.36 1.77 0 3.53-2.12 13.42-14.48 15.18-30.36 12.36-49.43-.35-1.06-.35-2.47-1.06-3.53-6.35 6.36-13.77 30.72-15.53 39.9a27.7 27.7 0 00.7 15.18zM594 325.36a5.44 5.44 0 01.35-5.65c1.06-1.76 1.06-4.24 2.47-6.35.71-.36 1.06-1.06 1.42-1.42 1.06-1.06 2.11-1.41 2.47.36.7 2.82 2.47 3.53 4.23 3.53 2.83 0 6-1.41 9.54-1.77 1.76-.35 3.88-1.06 5.29 1.06.35 1.06 1.41.35 2.12 0 12.36-5.29 12-8.82 14.47-7.06.71.35 1.42-.35 1.77-.71.71-.7 1.06-1.41 2.12-1.41 0 .71 0 1.06-.36 1.41.36.36.36.36.71.36 4.94-3.89 7.41-6.71 4.94-10.95-1.41 0-2.11 1.06-3.17 2.12-6 5.65-13.77 7.77-20.83 10.95 5.29-6.36 13.41-9.54 19.77-15.18-3.89-2.83-21.89-7.07-34.95-20.83-1.06-1.42-2.12-2.83-2.12-4.59 0-4.24-1.06-8.12 0-12.36.7-2.12.35-5.3 3.88-6 1.06 0 1.41-1.41 1.41-2.83-.7-17.65 49.08-53.3 62.49-53.3 7.06 0 16.59 7.76 20.83 13.06 1.41 1.76 1.41 3.53.71 6-1.77 6.71-5.3 12-9.89 17.3-4.59 4.59-8.12 10.24-12.35 15.53-.71.71-1.06 2.12-2.83 2.12 1.41-3.53 2.47-4.59 1.06-5.65-3.53-2.82 3.53-4.23 0-8.82-3.88 5.29-3.53 8.47-5.65 8.12-2.82-1.06 1.06-7.07 5.3-14.48.35-1.06 1.06-1.76 1.06-3.53-7.77 4.59-13.42 10.59-20.13 16.24 0-2.12 2.12-2.82 2.47-4.94-1.76 1.06-3.17 2.47-4.94 2.12-.7 0-1.41.7-2.12 1.41-8.82 9.18-8.12 9.88-10.23 9.53a1.23 1.23 0 00-.71.35 103.18 103.18 0 00-8.12 9.54c2.12 1.76 4.59 2.47 6.71 3.53 15.53 7.06 19.77 7.76 22.24 12.35 1.41 2.47 9.18 2.12 13.77 12a12.5 12.5 0 01-.71 10.59c-4.24 7.76-8.83 15.18-16.24 20.47-12 8.12-30.36 21.18-44.48 17.65-3.53-.7-3.18 2.83-13.06-4.94-2.85-2.11.29-3.17-.71-4.93zm15.89-70.61c.35 0 .35-.35.7-.7 0-.36-.35-.36-.35-.71-.35.35-.35.71-.71.71-.02.35-.02.7.34.7zm11.29.35c2.47-2.47 5.65-3.88 7.42-7.41.35-1.06 1.76-1.76 2.47-2.82 1.06-.71 2.47 0 1.41 1.06-6.71 7.41-9.88 8.12-8.47 12 5.65-7.41 12.35-13.42 18.36-20.48-3.18 0-3.18 0-5.3 2.12-1.41.71-2.12 1.41-3.18-.35-1.06-2.12-1.06-1.41-12 10.24-1.08 1.41-2.49 4.59-.73 5.64zm16.24 24.36l-1.76-1.76c1.41-2.12 1.06-1.41-10.59-7.06-.71-.35-1.42-1.06-2.83-.35 4.22 4.94 9.16 7.06 15.16 9.17zM648 325c10.6-7.77 20.83-15.54 23.66-28.6 1.4 9.9-11.31 25.78-23.66 28.6zm7.42-19.42c3.88-2.47 3.88-3.53.7-6.71-1.42 2.13-2.48 4.25-.71 6.72zm1.41-26.48a5.87 5.87 0 003.88 1.41c-1.07-.34-1.77-1.75-3.89-1.4zm7.06-32.83c1.06 0 1.41-1.06 2.83-1.41-1.77 3.17-1.77 3.53-2.83 2.82a1.13 1.13 0 01-1.06-1.06c-.01-.69.7-.34 1.05-.34z"/><path d="M27.18 183.14c-5.49-.3-10.32 1.44-12.95 4.68a18.85 18.85 0 00-4.13 12v16.65H0v12.13h10.1v67.88H22v-67.89h10.15v-12.12H22v-16.91a4.58 4.58 0 011.73-3.78c1.42-1.15 6.6-.38 9.82.54l1.64.47v-11.48l-.61-.37c-.06-.07-2.45-1.52-7.4-1.8zm25.22 38.74v-5.41H40.74v80H52.4v-46.4c0-5 .4-12.84 3.74-16.71 5.65-6.54 14.33-5.12 14.66-5.05l1.51.28V217l-1-.2c-.51-.14-10.95-1.93-18.91 5.08zm60.98 46.19c0 .08.49 8.31-4.14 13.11-2.31 2.41-5.56 3.57-9.67 3.46a10.06 10.06 0 01-7.54-3.4c-5.14-5.69-5.29-16.84-5.19-20.49h38.49v-4.25c0-13.77-1.46-22.58-4.73-28.57-4-7.28-11-11.29-19.64-11.29a23.26 23.26 0 00-20.24 11.1c-5.31 8.16-5.65 17.54-6 28.41a76.33 76.33 0 002.11 22.08 24.27 24.27 0 009.75 14.11 25.06 25.06 0 0014 4.23h1.09a24.9 24.9 0 0014.58-5.41 23.91 23.91 0 008.43-14.73 52.54 52.54 0 00.77-8.4v-1.3h-12.2zM87.5 244.29a33.38 33.38 0 012.21-8c.3-.73 3.2-7.17 10-7.69a10.19 10.19 0 016.86 1.91 13.6 13.6 0 015.53 8.84c.17.93.33 2 .51 3.35.23 1.73.41 3.92.5 6.16H87c.12-1.58.3-3.23.5-4.57zm77.31 7.81l-12-4.57c-3.29-1.53-6.14-4-6.77-8.42a9.59 9.59 0 012.12-7.29 8.81 8.81 0 017.63-3.24 9 9 0 016.46 3.25c3.8 4.66 3 12.71 3 12.78L165 246h12l.12-1.15a36.54 36.54 0 00-.85-11.37c-1.92-8-6.52-13.42-13.3-15.61a23 23 0 00-15.86.23 21 21 0 00-9.51 7.55 21.5 21.5 0 00-3.34 16.9A22.26 22.26 0 00145 256.82c1.84 1.07 11.44 5.35 13.83 6.12a10.65 10.65 0 016.09 4.82 11.58 11.58 0 01-.59 12.72c-1.87 2.52-5.13 4.64-10.82 4a11 11 0 01-7-3.62c-2.54-2.88-3.61-7.18-3.2-12.77l.1-1.38H131.2l-.08 1.2c-.54 7.65.93 14 4.36 18.81a22.82 22.82 0 0010.78 8.1 24.78 24.78 0 008.83 1.63 24 24 0 0022.67-15.79 25.48 25.48 0 00.89-13.12c-1.48-6.84-5.75-11.54-13.84-15.44zm44.38-35.91a21.33 21.33 0 00-12.51 2.81v-36h-12v113.48h12.07v-53.7c-.25-7.11 2.17-11.89 7-13.82a11 11 0 0114.37 6.22 18.51 18.51 0 011.21 6.76v54.54h12.07v-55.23a28.31 28.31 0 00-3.77-14.3c-.27-.43-6.37-10.48-18.44-10.76zm29.37.5h12.04v79.78h-12.04zm6.02-33.69a7.93 7.93 0 107.92 8 7.94 7.94 0 00-7.92-8zm15.2 33.69h12.04v79.78h-12.04zm6.02-17.82a7.93 7.93 0 10-7.92-7.92 7.93 7.93 0 007.92 7.92z" fill="#5c9a6d"/><path d="M132 92.32L126.26 96l-16.52-26.1 5.78-3.66zm21.77-33.85L162 75.31l-6.14 3-13.56-27.67 4.7-2.32L167.42 59l-8.21-16.71 6.14-3L179 67l-4.67 2.29zm61.07-38.15l1.88 5.43-8.3 2.87 8.24 23.77-6.38 2.21L202 30.83l-8.21 2.85-1.79-5.42zM263.23 28c1.47 3 3.24 5.35 6.25 4.7a4.85 4.85 0 002.79-1.95l3.37 4.1c-1.65 2-3.07 3.37-6.17 4-7.16 1.55-11.1-6-12.13-9.12l-4 .87 2.32 10.74-6.66 1.45-6.51-30.19 13.41-2.9c6.21-1.34 10.62 2.54 11.76 7.85A9.35 9.35 0 01263.23 28zm-5.15-4c2.38-.51 3.43-2.54 2.89-5s-2.35-4-4.72-3.46l-5.91 1.28 1.84 8.5zm52.47-22.77a15.93 15.93 0 11-14.7 17.19 16 16 0 0114.7-17.19zm2.1 25.51a9.31 9.31 0 008.44-10.39 9.29 9.29 0 10-18.51 1.52 9.31 9.31 0 0010.07 8.87zm53.5 4.82l-11.54-.73L356.56 0l11.54.73c10.09.64 15.95 8 15.41 16.45s-7.27 15.02-17.36 14.38zm1.61-25.41l-4.71-.3-1.27 20 4.71.29c5.86.37 9.8-3.89 10.15-9.39s-3.02-10.23-8.88-10.6zm70.65 3.47L435 28.5c-1.42 7.82-7.95 10.94-14.77 9.7s-11.79-6.44-10.37-14.26l3.43-18.88L420 6.28l-3.43 18.88c-.76 4.22 1.54 6.83 4.67 7.4s6.25-1.07 7-5.28l3.44-18.88zm44.67 11.63a17.07 17.07 0 019.39 7.05l-4.27 4.11a12.79 12.79 0 00-6.91-5.34c-6-1.89-10.9 1.08-12.57 6.34s.65 10.53 6.62 12.42a12.85 12.85 0 008.73-.38l1.12 5.82a17.13 17.13 0 01-11.73.35c-10-3.16-13.94-12.1-11.34-20.3s10.99-13.23 20.96-10.07zm30.5 45.31l-6.27-2.74 12.38-28.3 6.31 2.74zm40.21-.92l-9.33 16.27-5.93-3.4 15.35-26.76 4.55 2.61L561 77.28l9.26-16.16 5.94 3.41-15.41 26.79-4.52-2.59zm60.67 24.87a17.48 17.48 0 016.45 9.9l-5.78 2a13 13 0 00-4.29-6.76c-6-4.54-11.21-1.87-13.91 1.68a9.18 9.18 0 001.79 13.39 13.54 13.54 0 005.22 2.53l2.68-3.51-6.22-4.74 3.31-4.35 11.31 8.6-7.61 10a17.62 17.62 0 01-12.41-3.54c-7.55-5.74-8.71-15.66-3.42-22.62s14.66-8.83 22.88-2.58z" fill="#337f5d"/></g></g></svg>